<?xml version="1.0" encoding="utf-8"?>
<!-- Generator: Adobe Illustrator 26.5.0, SVG Export Plug-In . SVG Version: 6.00 Build 0)  -->
<svg version="1.1" id="Слой_1" xmlns="http://www.w3.org/2000/svg" xmlns:xlink="http://www.w3.org/1999/xlink" x="0px" y="0px"
	 viewBox="0 0 1000 1000" style="enable-background:new 0 0 1000 1000;" xml:space="preserve">
<style type="text/css">
	.st0{fill:#EC6054;}
	.st1{fill:none;}
	.st2{fill:#47B16C;}
	.st3{fill:#35B39C;}
	.st4{fill:#46B06B;}
</style>
<path class="st0" d="M772.75,408.43c-1.96-3.95-6.05-6.81-10.43-7.3c-7.81-0.87-13.99,6.09-16.16,11.99
	c-1.79,4.86-2.59,13.72,3.13,17.73c5.72,4,13.77,0.22,17.73-3.13C771.81,423.66,776.24,415.47,772.75,408.43z"/>
<path class="st0" d="M747.21,382.82c-3.67-2.44-8.64-2.88-12.68-1.11c-7.2,3.15-9.07,12.27-8,18.46
	c0.88,5.11,4.62,13.18,11.57,13.79c6.95,0.61,12.03-6.69,13.79-11.57C754.02,396.48,753.75,387.17,747.21,382.82z"/>
<path class="st0" d="M717.97,381.71c-4.04-1.77-9.01-1.33-12.68,1.11c-6.54,4.35-6.81,13.66-4.68,19.57
	c1.76,4.88,6.84,12.18,13.79,11.57c6.95-0.61,10.69-8.68,11.57-13.79C727.04,393.98,725.17,384.86,717.97,381.71z"/>
<path class="st0" d="M687.58,402.11c-4.23,1.24-7.76,4.77-9,9c-2.21,7.54,3.56,14.84,9,18c4.48,2.61,13.06,4.94,18,0
	s2.61-13.52,0-18C702.42,405.67,695.12,399.89,687.58,402.11z"/>
<path class="st0" d="M726.25,464.18c10.58,4.85,21.67,5.34,27,0c8.02-8.04,0.3-26.6-9-36c-2.73-2.76-8.9-9-18-9s-15.27,6.24-18,9
	c-9.3,9.4-17.02,27.96-9,36C704.57,469.52,715.67,469.03,726.25,464.18z"/>
<g>
	<rect x="279" y="450" class="st1" width="495" height="144"/>
	<path class="st2" d="M346.69,494.83c-2.28,4.06-5.72,7.31-10.32,9.74c-4.6,2.44-10.23,3.65-16.88,3.65h-11.25v27.61H285.5v-81.78
		h33.99c6.57,0,12.16,1.16,16.76,3.48c4.6,2.32,8.06,5.53,10.38,9.63c2.32,4.1,3.48,8.82,3.48,14.15
		C350.11,486.27,348.97,490.77,346.69,494.83z M326.91,481.32c0-5.95-3.21-8.93-9.63-8.93h-9.05v17.75h9.05
		C323.7,490.13,326.91,487.2,326.91,481.32z"/>
	<path class="st3" d="M421.1,507.88h-43.04c0.23,3.56,1.22,6.21,2.96,7.95c1.74,1.74,3.96,2.61,6.67,2.61c3.79,0,6.5-1.7,8.12-5.1
		h24.24c-1.01,4.49-2.96,8.49-5.86,12.01c-2.9,3.52-6.55,6.28-10.96,8.29c-4.41,2.01-9.28,3.02-14.62,3.02
		c-6.42,0-12.12-1.35-17.11-4.06c-4.99-2.71-8.89-6.57-11.72-11.6c-2.82-5.03-4.23-10.94-4.23-17.75c0-6.8,1.39-12.7,4.18-17.69
		c2.78-4.99,6.67-8.83,11.66-11.54c4.99-2.71,10.73-4.06,17.23-4.06c6.42,0,12.1,1.32,17.05,3.94c4.95,2.63,8.82,6.4,11.6,11.31
		c2.78,4.91,4.18,10.69,4.18,17.34C421.45,504.33,421.33,506.11,421.1,507.88z M398.25,496.86c0-2.78-0.93-4.97-2.78-6.55
		c-1.86-1.58-4.18-2.38-6.96-2.38s-5.07,0.75-6.84,2.26c-1.78,1.51-2.94,3.73-3.48,6.67H398.25z"/>
	<path class="st3" d="M469.12,516.47v19.37h-9.86c-16.63,0-24.94-8.24-24.94-24.71v-21.46h-8v-18.91h8v-15.78h22.85v15.78h11.83
		v18.91h-11.83v21.81c0,1.78,0.41,3.06,1.22,3.83c0.81,0.77,2.18,1.16,4.12,1.16H469.12z"/>
	<path class="st4" d="M481.82,473.26c3.36-6.3,8.14-11.21,14.33-14.73c6.19-3.52,13.3-5.28,21.34-5.28
		c10.21,0,18.79,2.73,25.75,8.18s11.44,12.86,13.46,22.21h-24.48c-1.47-3.09-3.5-5.45-6.09-7.08c-2.59-1.62-5.59-2.44-8.99-2.44
		c-5.26,0-9.45,1.88-12.59,5.63c-3.13,3.75-4.7,8.76-4.7,15.02c0,6.34,1.57,11.39,4.7,15.14c3.13,3.75,7.33,5.63,12.59,5.63
		c3.4,0,6.4-0.81,8.99-2.44c2.59-1.62,4.62-3.98,6.09-7.08h24.48c-2.01,9.36-6.5,16.76-13.46,22.21
		c-6.96,5.45-15.54,8.18-25.75,8.18c-8.04,0-15.16-1.76-21.34-5.28c-6.19-3.52-10.96-8.43-14.33-14.73
		c-3.36-6.3-5.05-13.51-5.05-21.63C476.78,486.73,478.46,479.56,481.82,473.26z"/>
	<path class="st4" d="M567.43,485.61c2.44-5.03,5.76-8.89,9.98-11.6c4.21-2.71,8.91-4.06,14.09-4.06c4.48,0,8.35,0.89,11.6,2.67
		c3.25,1.78,5.76,4.18,7.54,7.19v-9.05h22.74v65.08h-22.74v-9.05c-1.78,3.02-4.31,5.41-7.6,7.19c-3.29,1.78-7.13,2.67-11.54,2.67
		c-5.18,0-9.88-1.35-14.09-4.06c-4.22-2.71-7.54-6.59-9.98-11.66c-2.44-5.06-3.65-10.96-3.65-17.69
		C563.78,496.51,564.99,490.64,567.43,485.61z M607.22,493.38c-2.28-2.4-5.09-3.6-8.41-3.6c-3.4,0-6.23,1.18-8.47,3.54
		c-2.24,2.36-3.36,5.67-3.36,9.92c0,4.18,1.12,7.48,3.36,9.92c2.24,2.44,5.06,3.65,8.47,3.65c3.32,0,6.13-1.2,8.41-3.6
		c2.28-2.4,3.42-5.72,3.42-9.98C610.64,499.07,609.5,495.78,607.22,493.38z"/>
	<path class="st4" d="M678.38,473.43c3.63-2.16,7.54-3.25,11.72-3.25v24.24h-6.38c-4.95,0-8.62,0.97-11.02,2.9
		c-2.4,1.93-3.6,5.3-3.6,10.09v28.42h-22.74v-65.08h22.74v11.48C671.66,478.53,674.75,475.6,678.38,473.43z"/>
	<path class="st4" d="M760.05,507.88h-43.04c0.23,3.56,1.22,6.21,2.96,7.95c1.74,1.74,3.96,2.61,6.67,2.61c3.79,0,6.5-1.7,8.12-5.1
		H759c-1.01,4.49-2.96,8.49-5.86,12.01c-2.9,3.52-6.55,6.28-10.96,8.29c-4.41,2.01-9.28,3.02-14.62,3.02
		c-6.42,0-12.12-1.35-17.11-4.06c-4.99-2.71-8.89-6.57-11.72-11.6c-2.82-5.03-4.23-10.94-4.23-17.75c0-6.8,1.39-12.7,4.18-17.69
		c2.78-4.99,6.67-8.83,11.66-11.54c4.99-2.71,10.73-4.06,17.23-4.06c6.42,0,12.1,1.32,17.05,3.94c4.95,2.63,8.82,6.4,11.6,11.31
		c2.78,4.91,4.18,10.69,4.18,17.34C760.39,504.33,760.28,506.11,760.05,507.88z M737.19,496.86c0-2.78-0.93-4.97-2.78-6.55
		c-1.86-1.58-4.18-2.38-6.96-2.38c-2.78,0-5.07,0.75-6.84,2.26c-1.78,1.51-2.94,3.73-3.48,6.67H737.19z"/>
</g>
<g>
</g>
<g>
</g>
<g>
</g>
<g>
</g>
<g>
</g>
<g>
</g>
</svg>
